<svg width="179" height="46" viewBox="0 0 179 46" fill="none" xmlns="http://www.w3.org/2000/svg">
<g clip-path="url(#clip0)">
<path d="M19.9285 12.5357C19.666 12.0973 19.1781 11.8457 18.6686 11.8844L7.71716 12.7304C6.6084 12.8161 5.62076 13.3972 5.00731 14.3249L0.411389 21.2762C-0.0537279 21.9798 -0.127759 22.8601 0.213465 23.6313C0.554599 24.4026 1.25582 24.9399 2.08912 25.069L10.9692 26.4444C11.0383 26.4551 11.1073 26.4604 11.1758 26.4604C11.6306 26.4603 12.061 26.2297 12.311 25.8385L19.9079 13.9538C20.1831 13.5232 20.191 12.9741 19.9285 12.5357V12.5357Z" fill="#E45A6E"/>
<path d="M33.4643 26.0729C33.0258 25.8104 32.4766 25.8184 32.0461 26.0936L20.1614 33.6904C19.7114 33.9781 19.4738 34.5044 19.5554 35.0323L20.9308 43.9123C21.0599 44.7457 21.5973 45.4469 22.3686 45.7881C22.6894 45.9299 23.029 45.9999 23.367 45.9999C23.8414 45.9999 24.3128 45.8618 24.7237 45.5902L31.6751 40.9941C32.6028 40.3809 33.184 39.3931 33.2696 38.2843L34.1155 27.333C34.155 26.8235 33.9027 26.3355 33.4643 26.0729V26.0729Z" fill="#D82E44"/>
<path d="M17.328 37.0391C17.8643 37.5755 18.6265 37.8264 19.3746 37.7013C30.3455 35.8668 39.027 26.7834 42.332 20.3934C46.002 13.2982 46.138 5.80024 45.9461 2.28378C45.8804 1.07881 44.9199 0.118295 43.7149 0.0525302C40.1984 -0.139195 32.7006 -0.00326231 25.6052 3.66674C19.2154 6.97179 10.1319 15.6532 8.2975 26.6242C8.17244 27.3723 8.42328 28.1344 8.95965 28.6708L17.328 37.0391Z" fill="#F1F1FB"/>
<path d="M45.2577 0.742188L13.1438 32.8561L17.328 37.0403C17.8643 37.5767 18.6265 37.8275 19.3746 37.7025C30.3455 35.868 39.027 26.7845 42.332 20.3947C46.002 13.2995 46.1379 5.80152 45.9461 2.28506C45.9132 1.68257 45.6567 1.14118 45.2577 0.742188V0.742188Z" fill="#D7D6FB"/>
<path d="M31.5108 21.2244C29.785 21.2245 28.0599 20.5678 26.7461 19.254C25.4734 17.9814 24.7725 16.2892 24.7725 14.4893C24.7725 12.6895 25.4734 10.9973 26.7461 9.7247C29.3732 7.09751 33.648 7.09742 36.2753 9.7247C37.548 10.9973 38.2489 12.6895 38.2489 14.4893C38.2489 16.2892 37.548 17.9814 36.2753 19.254C34.9619 20.5675 33.236 21.2243 31.5108 21.2244V21.2244ZM27.699 10.6777H27.6999H27.699Z" fill="#466288"/>
<path d="M8.2975 26.6254C8.17244 27.3735 8.42328 28.1357 8.95965 28.672L17.328 37.0404C17.8644 37.5767 18.6265 37.8276 19.3746 37.7025C21.7619 37.3033 24.0405 36.5607 26.1791 35.5775L10.4225 19.821C9.43932 21.9596 8.69668 24.2383 8.2975 26.6254V26.6254Z" fill="#466288"/>
<path d="M1.37496 37.9083C1.71978 37.9083 2.06478 37.7766 2.32784 37.5135L6.72776 33.1136C7.25406 32.5874 7.25406 31.734 6.72776 31.2077C6.20154 30.6814 5.34829 30.6814 4.8219 31.2077L0.422072 35.6076C-0.104232 36.1338 -0.104232 36.9872 0.422072 37.5135C0.685225 37.7767 1.03004 37.9083 1.37496 37.9083V37.9083Z" fill="#FDB43A"/>
<path d="M10.7597 35.24C10.2335 34.7138 9.38018 34.7138 8.85388 35.24L0.394729 43.6991C-0.131576 44.2254 -0.131576 45.0787 0.394729 45.605C0.657881 45.8682 1.00279 45.9997 1.3477 45.9997C1.69261 45.9997 2.03752 45.8681 2.30058 45.6049L10.7597 37.1458C11.286 36.6195 11.286 35.7662 10.7597 35.24V35.24Z" fill="#FDB43A"/>
<path d="M14.7922 39.2723C14.266 38.7461 13.4126 38.7461 12.8863 39.2723L8.48652 43.6722C7.96022 44.1984 7.96022 45.0517 8.48652 45.578C8.74968 45.8412 9.09459 45.9728 9.43941 45.9728C9.78422 45.9728 10.1292 45.8412 10.3923 45.578L14.7922 41.1781C15.3185 40.6519 15.3185 39.7986 14.7922 39.2723V39.2723Z" fill="#F57A21"/>
<path d="M0.39502 45.6051C0.658172 45.8682 1.00308 45.9998 1.34799 45.9998C1.6929 45.9998 2.03781 45.8681 2.30087 45.605L10.76 37.1458C11.2863 36.6196 11.2863 35.7663 10.76 35.24L0.39502 45.6051Z" fill="#F57A21"/>
<path d="M13.1438 32.8562L17.328 37.0404C17.8643 37.5768 18.6265 37.8276 19.3746 37.7026C21.7618 37.3034 24.0404 36.5607 26.179 35.5776L18.3008 27.6993L13.1438 32.8562Z" fill="#354A67"/>
<path d="M26.7461 19.254C28.0599 20.5678 29.785 21.2246 31.5108 21.2244C33.236 21.2243 34.9619 20.5674 36.2754 19.254C37.5481 17.9813 38.249 16.2891 38.249 14.4893C38.249 12.6895 37.5481 10.9972 36.2754 9.72461L26.7461 19.254Z" fill="#354A67"/>
<path d="M31.5105 10.4484C30.4752 10.4484 29.4399 10.8424 28.6518 11.6306C27.8882 12.3942 27.4675 13.4094 27.4675 14.4894C27.4675 15.5693 27.8882 16.5845 28.6518 17.3481C30.2281 18.9244 32.7931 18.9245 34.3694 17.3481C35.133 16.5844 35.5536 15.5692 35.5536 14.4893C35.5536 13.4094 35.133 12.3941 34.3694 11.6305C33.5812 10.8424 32.5459 10.4484 31.5105 10.4484V10.4484Z" fill="#4BBEFD"/>
<path d="M34.3694 11.6305L28.6519 17.3481C30.2282 18.9244 32.7932 18.9245 34.3694 17.3481C35.133 16.5844 35.5536 15.5692 35.5536 14.4892C35.5536 13.4093 35.1331 12.3941 34.3694 11.6305V11.6305Z" fill="#0590FB"/>
</g>
<path d="M64.7258 28.384V27.448C64.7258 27.04 64.9298 26.836 65.3378 26.836H67.6418C68.0498 26.836 68.2538 27.04 68.2538 27.448V28.096C68.2538 29.104 68.4698 29.836 68.9018 30.292C69.3578 30.724 70.1018 30.94 71.1338 30.94H73.6178C74.6498 30.94 75.3938 30.712 75.8498 30.256C76.3058 29.776 76.5338 29.008 76.5338 27.952V27.124C76.5338 26.356 76.2338 25.756 75.6338 25.324C75.0578 24.868 74.3378 24.58 73.4738 24.46C72.6098 24.316 71.6618 24.124 70.6298 23.884C69.5978 23.644 68.6498 23.368 67.7858 23.056C66.9218 22.744 66.1898 22.156 65.5898 21.292C65.0138 20.428 64.7258 19.324 64.7258 17.98V16.468C64.7258 14.716 65.2178 13.348 66.2018 12.364C67.2098 11.356 68.5898 10.852 70.3418 10.852H74.1578C75.9338 10.852 77.3138 11.356 78.2978 12.364C79.3058 13.348 79.8098 14.716 79.8098 16.468V17.26C79.8098 17.668 79.6058 17.872 79.1978 17.872H76.8938C76.4858 17.872 76.2818 17.668 76.2818 17.26V16.792C76.2818 15.76 76.0538 15.028 75.5978 14.596C75.1658 14.14 74.4338 13.912 73.4018 13.912H71.1338C70.1018 13.912 69.3578 14.152 68.9018 14.632C68.4698 15.088 68.2538 15.88 68.2538 17.008V18.124C68.2538 19.204 69.0338 19.936 70.5938 20.32C71.2898 20.488 72.0458 20.632 72.8618 20.752C73.7018 20.872 74.5418 21.052 75.3818 21.292C76.2218 21.532 76.9898 21.856 77.6858 22.264C78.3818 22.648 78.9458 23.248 79.3778 24.064C79.8098 24.856 80.0258 25.828 80.0258 26.98V28.384C80.0258 30.136 79.5218 31.516 78.5138 32.524C77.5298 33.508 76.1618 34 74.4098 34H70.3778C68.6258 34 67.2458 33.508 66.2378 32.524C65.2298 31.516 64.7258 30.136 64.7258 28.384ZM87.4004 39.076H85.1324C84.7244 39.076 84.5204 38.872 84.5204 38.464V16.252C84.5204 15.844 84.7244 15.64 85.1324 15.64H87.4004C87.8084 15.64 88.0124 15.844 88.0124 16.252V17.548H88.1564C88.7324 16.276 89.9444 15.64 91.7924 15.64H93.6284C95.3564 15.64 96.6764 16.12 97.5884 17.08C98.5244 18.04 98.9924 19.42 98.9924 21.22V28.42C98.9924 30.196 98.5244 31.576 97.5884 32.56C96.6764 33.52 95.3564 34 93.6284 34H91.7924C89.9444 34 88.7324 33.364 88.1564 32.092H88.0124V38.464C88.0124 38.872 87.8084 39.076 87.4004 39.076ZM90.9644 30.94H92.8724C94.6004 30.94 95.4644 30.052 95.4644 28.276V21.364C95.4644 19.588 94.6004 18.7 92.8724 18.7H90.9644C88.9964 18.7 88.0124 19.72 88.0124 21.76V27.88C88.0124 29.92 88.9964 30.94 90.9644 30.94ZM109.777 34H108.373C106.597 34 105.217 33.508 104.233 32.524C103.273 31.54 102.793 30.172 102.793 28.42V21.22C102.793 19.444 103.273 18.076 104.233 17.116C105.217 16.132 106.597 15.64 108.373 15.64H116.437C116.869 15.64 117.085 15.844 117.085 16.252V33.388C117.085 33.796 116.869 34 116.437 34H114.169C113.761 34 113.557 33.796 113.557 33.388V32.092H113.413C112.837 33.364 111.625 34 109.777 34ZM113.557 27.88V19.06C113.557 18.82 113.425 18.7 113.161 18.7H108.877C107.149 18.7 106.285 19.588 106.285 21.364V28.276C106.285 30.052 107.149 30.94 108.877 30.94H110.605C112.573 30.94 113.557 29.92 113.557 27.88ZM132.735 31.552V33.424C132.735 33.808 132.519 34 132.087 34H126.795C125.019 34 123.639 33.508 122.655 32.524C121.695 31.54 121.215 30.172 121.215 28.42V21.22C121.215 19.444 121.695 18.076 122.655 17.116C123.639 16.132 125.019 15.64 126.795 15.64H132.087C132.519 15.64 132.735 15.844 132.735 16.252V18.124C132.735 18.508 132.519 18.7 132.087 18.7H127.299C125.571 18.7 124.707 19.588 124.707 21.364V28.276C124.707 30.052 125.571 30.94 127.299 30.94H132.087C132.519 30.94 132.735 31.144 132.735 31.552ZM149.161 34H141.385C139.609 34 138.229 33.508 137.245 32.524C136.285 31.54 135.805 30.172 135.805 28.42V21.22C135.805 19.444 136.285 18.076 137.245 17.116C138.229 16.132 139.609 15.64 141.385 15.64H144.337C146.113 15.64 147.493 16.132 148.477 17.116C149.461 18.076 149.953 19.444 149.953 21.22V25.792C149.953 26.224 149.737 26.44 149.305 26.44H139.657C139.393 26.44 139.261 26.56 139.261 26.8V28.348C139.261 30.1 140.137 30.976 141.889 30.976H149.161C149.593 30.976 149.809 31.192 149.809 31.624V33.424C149.809 33.808 149.593 34 149.161 34ZM139.657 23.992H146.101C146.341 23.992 146.461 23.872 146.461 23.632V21.328C146.461 20.416 146.257 19.756 145.849 19.348C145.441 18.916 144.781 18.7 143.869 18.7H141.889C140.977 18.7 140.317 18.916 139.909 19.348C139.501 19.756 139.297 20.416 139.297 21.328V23.632C139.297 23.872 139.417 23.992 139.657 23.992ZM161.885 33.388V31.696C161.885 31.072 161.993 30.628 162.209 30.364L172.613 14.272V14.128H163.073C162.641 14.128 162.425 13.924 162.425 13.516V11.464C162.425 11.056 162.641 10.852 163.073 10.852H175.817C176.225 10.852 176.429 11.056 176.429 11.464V13.84C176.429 14.368 176.297 14.836 176.033 15.244L166.025 30.58V30.724H176.177C176.585 30.724 176.789 30.916 176.789 31.3V33.316C176.789 33.772 176.585 34 176.177 34H162.497C162.089 34 161.885 33.796 161.885 33.388Z" fill="white"/>
<defs>
<clipPath id="clip0">
<rect width="46" height="46" fill="white"/>
</clipPath>
</defs>
</svg>
